<?xml version="1.0" encoding="utf-8"?>
<!-- Generator: Adobe Illustrator 16.0.0, SVG Export Plug-In . SVG Version: 6.00 Build 0)  -->
<!DOCTYPE svg PUBLIC "-//W3C//DTD SVG 1.1//EN" "http://www.w3.org/Graphics/SVG/1.1/DTD/svg11.dtd">
<svg version="1.1" id="Layer_1" xmlns="http://www.w3.org/2000/svg" xmlns:xlink="http://www.w3.org/1999/xlink" x="0px" y="0px"
	 width="233px" height="89px" viewBox="0 0 233 89" enable-background="new 0 0 233 89" xml:space="preserve">
<g>
	<path fill="none" d="M127.955,48.001c0,1.396,0.812,2.095,2.438,2.095c1.487,0,2.67-0.32,3.547-0.957v-2.878
		c-0.854-0.155-1.916-0.235-3.186-0.235C128.887,46.025,127.955,46.684,127.955,48.001z"/>
	<path fill="none" d="M44.645,40.666c0-0.307,0-0.648,0-0.942C44.645,40.104,44.645,40.418,44.645,40.666z"/>
	<path fill="none" d="M38.913,54.084c0,0.209,0.091,0.471,0.228,0.706c0.136,0.235,0.317,0.446,0.498,0.551
		c2.558,1.478,5.032,2.904,7.59,4.382l0.003,0.008h0.009c2.559,1.478,5.031,2.904,7.59,4.384c0.18,0.104,0.453,0.155,0.725,0.153
		c0.272,0.002,0.544-0.052,0.725-0.153c2.558-1.479,5.032-2.905,7.59-4.384h0.008l0.004-0.008c2.559-1.478,5.033-2.904,7.59-4.382
		c0.181-0.104,0.362-0.313,0.498-0.551c0.136-0.235,0.228-0.497,0.228-0.706c0-2.953-0.001-5.811,0-8.764l0.003-0.008l-0.003-0.008
		v-8.764c0-0.209-0.092-0.471-0.228-0.707c-0.137-0.235-0.318-0.445-0.499-0.55c-2.557-1.478-5.031-2.905-7.59-4.383l-0.004-0.006
		H63.87c-2.558-1.478-5.032-2.906-7.59-4.383c-0.181-0.104-0.453-0.156-0.725-0.155c-0.272-0.001-0.545,0.051-0.725,0.155
		c-2.559,1.477-5.032,2.906-7.59,4.383h-0.008l-0.004,0.006c-2.558,1.479-5.032,2.906-7.59,4.382
		c-0.18,0.105-0.362,0.314-0.497,0.551c-0.137,0.236-0.228,0.498-0.228,0.706v8.765l-0.003,0.006l0.003,0.01V54.084z M64.705,33.729
		c-4.868,2.811-9.738,5.62-14.605,8.433V54.76l1.761,1.018c0-4.198-0.002-8.398-0.002-12.598c4.869-2.811,9.74-5.617,14.606-8.433
		l3.696,2.135c-4.869,2.811-9.739,5.62-14.606,8.432V57.91l1.613-0.932V46.243l9.296-5.369l3.695-2.133
		c-0.002,5,0.001,10.002,0.001,15.002c-4.869,2.812-9.739,5.618-14.605,8.433l-2.162-1.248l-1.534-0.886L50.1,59.027l-3.696-2.135
		c0.005-5.621,0-11.242,0-16.866c4.868-2.811,9.74-5.617,14.605-8.433L64.705,33.729z M40.95,36.879
		c4.868-2.812,9.739-5.619,14.605-8.433l3.696,2.134c-4.869,2.811-9.738,5.62-14.606,8.433c-0.001,5.621,0.001,11.243,0.001,16.865
		l-3.696-2.134C40.955,48.122,40.95,42.5,40.95,36.879z"/>
	<path fill="none" d="M111.249,48.001c0,1.396,0.813,2.095,2.438,2.095c1.487,0,2.669-0.32,3.545-0.957v-2.878
		c-0.852-0.155-1.915-0.235-3.184-0.235C112.181,46.025,111.249,46.684,111.249,48.001z"/>
	<path fill="none" d="M44.645,39.013c0,0.059,0,0.11,0,0.167C44.645,39.077,44.645,39.013,44.645,39.013z"/>
	<path fill="none" d="M66.463,45.139c-1.868,1.077-3.735,2.156-5.602,3.235c-0.002,2.157-0.002,4.313-0.002,6.472l5.604-3.236
		V45.139z"/>
	<rect x="66.222" y="63.784" fill="none" width="0.001" height="0.005"/>
	<path fill="none" d="M71.472,35.284c0,0,0.024,0.014,0.046,0.027C71.505,35.304,71.5,35.3,71.472,35.284z"/>
	<path fill="none" d="M140.661,49.709c0.706,0.227,1.562,0.338,2.569,0.338c2.713,0,4.063-1.547,4.063-4.636
		c0-2.609-1.226-3.914-3.681-3.914c-1.117,0-2.104,0.206-2.954,0.626L140.661,49.709z"/>
	<path fill="none" d="M160.749,41.355c-2.095,0-3.208,1.07-3.347,3.208h6.248C163.757,42.425,162.791,41.355,160.749,41.355z"/>
	<path fill="none" d="M216.646,42.822c-0.795-0.421-1.744-0.631-2.858-0.631c-1.912,0-2.871,1.075-2.871,3.221
		c0,2.545,0.959,3.822,2.871,3.822c1.114,0,2.063-0.15,2.858-0.457V42.822z"/>
	<path fill="none" stroke="#333D4D" stroke-width="0" stroke-linecap="round" stroke-linejoin="round" d="M109.1,49.159
		c0,0.075,0-1.122,0-1.122"/>
	<path fill="none" stroke="#333D4D" stroke-width="0" stroke-linecap="round" stroke-linejoin="round" d="M125.807,49.159
		c0,0.075,0-1.122,0-1.122"/>
	<path fill="#333D4D" d="M98.25,45.503c0,4.224,2.209,6.333,6.622,6.333c1.162,0,2.244-0.117,3.251-0.35v-1.74
		c-1.006,0.23-2.014,0.35-3.021,0.35c-3.137,0-4.703-1.531-4.703-4.593c0-2.748,1.566-4.124,4.703-4.124
		c1.007,0,2.014,0.12,3.021,0.349v-1.74c-1.006-0.235-2.089-0.35-3.251-0.35C100.459,39.638,98.25,41.593,98.25,45.503z"/>
	<path fill="#333D4D" d="M165.911,44.507C165.938,44.339,165.943,44.306,165.911,44.507L165.911,44.507z"/>
	<path fill="#333D4D" d="M165.838,44.96c0.033-0.209,0.058-0.36,0.073-0.453C165.894,44.616,165.867,44.777,165.838,44.96z"/>
	<path fill="#333D4D" d="M87.963,51.334c-0.001,0-0.002-0.001-0.004-0.001C87.961,51.333,87.962,51.334,87.963,51.334z"/>
	<path fill="#333D4D" d="M87.959,51.333c-0.068-0.02-0.132-0.038-0.182-0.052C87.845,51.301,87.907,51.318,87.959,51.333z"/>
	<path fill="#333D4D" d="M87.777,51.281c-0.021-0.006-0.038-0.011-0.06-0.018C87.732,51.269,87.752,51.274,87.777,51.281z"/>
	<path fill="#333D4D" d="M88.192,51.398c-0.062-0.018-0.146-0.041-0.229-0.064C88.062,51.362,88.141,51.385,88.192,51.398z"/>
	<path fill="#333D4D" d="M88.284,51.425C88.291,51.427,88.292,51.427,88.284,51.425L88.284,51.425z"/>
	<path fill="#333D4D" d="M88.284,51.425c-0.01-0.003-0.038-0.011-0.092-0.026C88.236,51.411,88.27,51.421,88.284,51.425z"/>
	<path fill="#333D4D" d="M130.754,44.285c-3.299,0-4.947,1.25-4.947,3.752c0,2.533,1.529,3.798,4.59,3.799
		c1.435,0,2.681-0.286,3.742-0.859l0.856,0.859h1.095V43.54c0-2.601-1.812-3.902-5.438-3.902c-1.254,0-2.541,0.194-3.857,0.579
		v1.745c1.316-0.389,2.6-0.583,3.857-0.583c2.188,0,3.287,0.662,3.287,1.986v1.15C133.029,44.361,131.973,44.285,130.754,44.285z
		 M133.939,49.139c-0.877,0.637-2.06,0.957-3.547,0.957c-1.625,0-2.438-0.699-2.438-2.095c0-1.317,0.932-1.976,2.799-1.976
		c1.27,0,2.332,0.08,3.186,0.235V49.139z"/>
	<path fill="#333D4D" d="M165.624,46.287c0.031-0.198,0.135-0.837,0.214-1.327C165.789,45.262,165.721,45.687,165.624,46.287z"/>
	<path fill="#333D4D" d="M87.717,51.264c-0.017-0.004-0.029-0.008-0.029-0.008C87.699,51.259,87.707,51.261,87.717,51.264z"/>
	<path fill="#333D4D" d="M138.514,35.224v16.111c1.467,0.333,3.071,0.5,4.82,0.5c4.053,0,6.079-2.114,6.079-6.341
		c0-3.906-1.931-5.857-5.785-5.857c-1.056,0-2.043,0.194-2.967,0.583v-4.996H138.514z M143.613,41.497
		c2.455,0,3.681,1.305,3.681,3.914c0,3.089-1.351,4.636-4.063,4.636c-1.008,0-1.863-0.111-2.569-0.338l-0.002-7.586
		C141.51,41.703,142.496,41.497,143.613,41.497z"/>
	<rect x="151.255" y="35.224" fill="#333D4D" width="2.147" height="16.611"/>
	<path fill="#333D4D" d="M165.624,46.287c-0.007,0.039-0.011,0.064-0.011,0.064C165.617,46.327,165.62,46.311,165.624,46.287z"/>
	<rect x="121.807" y="35.224" fill="#333D4D" width="2.149" height="16.611"/>
	<path fill="#333D4D" d="M161.096,39.638c-3.897,0-5.845,1.986-5.845,5.959c0,4.159,2.058,6.237,6.17,6.237
		c1.539,0,2.849-0.117,3.927-0.351v-1.739c-1.078,0.229-2.152,0.349-3.23,0.349c-3.146,0-4.715-1.248-4.715-3.742h8.211
		C166.336,41.873,164.829,39.637,161.096,39.638z M157.402,44.563c0.139-2.138,1.252-3.208,3.347-3.208
		c2.042,0,3.008,1.07,2.901,3.208H157.402z"/>
	<path fill="#333D4D" d="M96.982,48.35c0-2.399-1.356-3.601-4.064-3.601h-1.975c-1.201,0-1.8-0.544-1.8-1.627
		c0-1.161,1.016-1.744,3.042-1.744c1.455,0,2.863,0.233,4.219,0.698v-1.86c-1.356-0.385-2.764-0.579-4.219-0.579
		c-3.383,0-5.076,1.162-5.076,3.485c0,2.401,1.276,3.603,3.834,3.603h1.975c1.277,0,1.915,0.543,1.915,1.625
		c0,1.161-0.971,1.744-2.914,1.744c-1.463,0-2.875-0.232-4.231-0.697v1.859c1.356,0.385,2.768,0.579,4.231,0.579
		C95.293,51.835,96.982,50.673,96.982,48.35z"/>
	<path fill="#333D4D" d="M114.049,44.285c-3.299,0-4.949,1.25-4.949,3.752c0,2.533,1.531,3.798,4.588,3.799
		c1.436,0,2.682-0.286,3.744-0.859l0.856,0.859h1.094V43.54c0-2.601-1.812-3.902-5.437-3.902c-1.257,0-2.542,0.194-3.858,0.579
		v1.745c1.316-0.389,2.601-0.583,3.858-0.583c2.189,0,3.29,0.662,3.29,1.986v1.15C116.325,44.361,115.266,44.285,114.049,44.285z
		 M117.232,49.139c-0.876,0.637-2.059,0.957-3.545,0.957c-1.625,0-2.438-0.699-2.438-2.095c0-1.317,0.932-1.976,2.8-1.976
		c1.269,0,2.332,0.08,3.184,0.235V49.139z"/>
	<path fill="#333D4D" d="M228.016,44.399h-1.976c-0.968,0-1.451-0.385-1.451-1.162c0-0.852,0.829-1.276,2.494-1.276
		c1.59,0,3.063,0.27,4.417,0.813V40.22c-1.355-0.464-2.799-0.697-4.334-0.697c-3.616,0-5.425,1.276-5.425,3.834
		c0,2.475,1.237,3.716,3.716,3.716h2.209c0.889,0,1.336,0.385,1.336,1.161c0,0.852-0.662,1.275-1.986,1.275
		c-1.771,0-3.339-0.269-4.693-0.812v2.553c1.357,0.465,2.883,0.7,4.578,0.699c3.453,0,5.179-1.277,5.179-3.835
		C232.079,45.641,230.725,44.399,228.016,44.399z"/>
	<path fill="#333D4D" d="M205.857,51.835v-7.657c0-3.026-1.408-4.541-4.221-4.541c-1.49,0-2.978,0.52-4.461,1.559l-0.381-1.559
		h-2.383v12.198l3.083,0.001v-8.169c1.104-1.027,2.196-1.543,3.274-1.543c1.34,0,2.012,0.674,2.012,2.022v7.689H205.857z"/>
	<path fill="#333D4D" d="M219.725,51.102V35.224h-3.076v4.996c-0.86-0.389-1.815-0.583-2.871-0.583c-3.932,0-5.9,1.951-5.9,5.857
		c0,4.227,2.045,6.341,6.146,6.341C215.957,51.835,217.857,51.589,219.725,51.102z M210.917,45.412c0-2.146,0.959-3.221,2.871-3.221
		c1.114,0,2.063,0.21,2.858,0.631v5.956c-0.795,0.307-1.744,0.457-2.858,0.457C211.876,49.234,210.917,47.957,210.917,45.412z"/>
	<rect x="188.732" y="39.637" fill="#333D4D" width="3.08" height="12.198"/>
	<path fill="#333D4D" d="M186.135,51.836v-7.563c0-3.089-1.285-4.636-3.857-4.636c-1.363,0-2.823,0.56-4.377,1.674
		c-0.645-1.114-1.735-1.674-3.271-1.674c-1.376,0-2.769,0.512-4.167,1.535l-0.359-1.535h-2.385v12.198l3.081,0.001v-8.133
		c0.954-1.052,1.915-1.579,2.892-1.579c1.132,0,1.697,0.69,1.697,2.066v7.646h3.076v-8.133c0.999-1.052,1.955-1.579,2.871-1.579
		c1.148,0,1.717,0.678,1.717,2.031v7.681H186.135z"/>
	<rect x="188.732" y="35.224" fill="#333D4D" width="3.08" height="2.438"/>
	<path fill="#333D4D" d="M12.26,73.018l24.305-14.033l8.322,4.806c0-0.002,0.001-0.003,0.002-0.005v0.001
		c0,0.001-0.001,0.002-0.001,0.004l8.32,4.804v12.521h4.695V68.593l8.321-4.804c-0.001-0.001-0.002-0.003-0.003-0.004v-0.001
		l0.001,0.001l0.002,0.004l8.322-4.805l6.158,3.556l2.348-4.065l-6.16-3.557v-9.607v-9.607l26.563-15.337l-2.348-4.064
		L74.543,31.638l-8.32-4.804l-8.321-4.805V7.662h-4.695v14.369l-8.321,4.805l-8.321,4.804l-10.916-6.303l-2.348,4.065l10.916,6.303
		v9.607h0.005v0.002h-0.004l-0.001,9.605L9.912,68.953L12.26,73.018z M38.913,45.305V36.54c0-0.208,0.091-0.47,0.228-0.706
		c0.135-0.237,0.317-0.446,0.497-0.551c2.558-1.476,5.032-2.903,7.59-4.382l0.004-0.006h0.008c2.558-1.477,5.031-2.906,7.59-4.383
		c0.18-0.104,0.453-0.156,0.725-0.155c0.272-0.001,0.544,0.051,0.725,0.155c2.558,1.477,5.032,2.905,7.59,4.383h0.008l0.004,0.006
		c2.559,1.478,5.033,2.905,7.59,4.383c0.027,0.016,0.033,0.02,0.046,0.027c-0.022-0.013-0.046-0.027-0.046-0.027
		c0.181,0.105,0.362,0.315,0.499,0.55c0.136,0.236,0.228,0.498,0.228,0.707v8.764l0.003,0.008l-0.003,0.008
		c-0.001,2.953,0,5.811,0,8.764c0,0.209-0.092,0.471-0.228,0.706c-0.136,0.237-0.317,0.446-0.498,0.551
		c-2.557,1.478-5.031,2.904-7.59,4.382l-0.004,0.008h-0.008c-2.558,1.479-5.032,2.904-7.59,4.384
		c-0.181,0.102-0.453,0.155-0.725,0.153c-0.272,0.002-0.545-0.05-0.725-0.153c-2.559-1.479-5.031-2.906-7.59-4.384h-0.009
		l-0.003-0.008c-2.558-1.478-5.032-2.904-7.59-4.382c-0.181-0.104-0.362-0.315-0.498-0.551c-0.137-0.235-0.228-0.497-0.228-0.706
		V45.32l-0.003-0.01L38.913,45.305z"/>
	<circle fill="#333D4D" cx="106.02" cy="16.175" r="2.348"/>
	<circle fill="#333D4D" cx="85.616" cy="62.667" r="2.347"/>
	<circle fill="#333D4D" cx="20.738" cy="25.209" r="2.348"/>
	<circle fill="#333D4D" cx="55.554" cy="3.345" r="2.348"/>
	<circle fill="#333D4D" cx="7.347" cy="73.144" r="2.347"/>
	<circle fill="#333D4D" cx="55.554" cy="85.432" r="2.347"/>
	<path fill="#333D4D" d="M46.404,56.893l3.696,2.135l1.759,1.015l1.534,0.886l2.162,1.248c4.866-2.814,9.736-5.621,14.605-8.433
		c0-5-0.003-10.002-0.001-15.002l-3.695,2.133l-9.296,5.369v10.735l-1.613,0.932V45.312c4.867-2.812,9.737-5.621,14.606-8.432
		l-3.696-2.135c-4.866,2.816-9.737,5.622-14.606,8.433c0,4.2,0.002,8.4,0.002,12.598L50.1,54.76V42.162
		c4.867-2.813,9.737-5.622,14.605-8.433l-3.696-2.135c-4.865,2.816-9.737,5.622-14.605,8.433
		C46.404,45.65,46.409,51.271,46.404,56.893z M60.861,48.374c1.867-1.079,3.734-2.158,5.602-3.235v6.471l-5.604,3.236
		C60.859,52.688,60.859,50.531,60.861,48.374z"/>
	<path fill="#333D4D" d="M44.645,39.013c0,0,0,0.063,0,0.167C44.645,39.123,44.645,39.072,44.645,39.013
		c4.868-2.813,9.737-5.622,14.606-8.433l-3.696-2.134c-4.866,2.814-9.737,5.621-14.605,8.433c0,5.621,0.005,11.243,0,16.865
		l3.696,2.134C44.646,50.256,44.644,44.634,44.645,39.013z M44.645,39.724c0,0.293,0,0.635,0,0.942
		C44.645,40.418,44.645,40.104,44.645,39.724z"/>
</g>
</svg>
